<?xml version="1.0" encoding="UTF-8" standalone="no"?>
<svg
   xmlns:dc="http://purl.org/dc/elements/1.1/"
   xmlns:cc="http://creativecommons.org/ns#"
   xmlns:rdf="http://www.w3.org/1999/02/22-rdf-syntax-ns#"
   xmlns:svg="http://www.w3.org/2000/svg"
   xmlns="http://www.w3.org/2000/svg"
   xmlns:sodipodi="http://sodipodi.sourceforge.net/DTD/sodipodi-0.dtd"
   xmlns:inkscape="http://www.inkscape.org/namespaces/inkscape"
   version="1.1"
   id="svg2"
   xml:space="preserve"
   width="300"
   height="200"
   viewBox="0 0 300 200"
   sodipodi:docname="fasthr-logo.svg"
   inkscape:version="1.0.1 (3bc2e813f5, 2020-09-07)"><metadata
     id="metadata8"><rdf:RDF><cc:Work
         rdf:about=""><dc:format>image/svg+xml</dc:format><dc:type
           rdf:resource="http://purl.org/dc/dcmitype/StillImage" /><dc:title></dc:title></cc:Work></rdf:RDF></metadata><defs
     id="defs6" /><sodipodi:namedview
     pagecolor="#ffffff"
     bordercolor="#666666"
     borderopacity="1"
     objecttolerance="10"
     gridtolerance="10"
     guidetolerance="10"
     inkscape:pageopacity="0"
     inkscape:pageshadow="2"
     inkscape:window-width="1920"
     inkscape:window-height="1015"
     id="namedview4"
     showgrid="false"
     inkscape:zoom="2.32"
     inkscape:cx="104.89551"
     inkscape:cy="93.68606"
     inkscape:window-x="0"
     inkscape:window-y="776"
     inkscape:window-maximized="1"
     inkscape:current-layer="g12" /><g
     id="g10"
     inkscape:groupmode="layer"
     inkscape:label="ink_ext_XXXXXX"
     transform="matrix(1.3333333,0,0,-1.3333333,0,5333.3333)"><g
       id="g12"
       transform="scale(0.1)"><g
         id="g1649"
         transform="matrix(1.25,0,0,1.25,187.50003,-10204.151)"><path
           d="m 636.8244,39932.8 c 0,0 69.0305,4.634 129.7855,-13.901 0,0 -169.5041,14.479 -272.1479,-289.258 0,0 -12.1658,-117.872 -226.5635,-132.581 0,0 -172.059,5.453 -267.8985,-217.881 0,0 195.3767,117.708 414.1756,-43.153 0,0 233.4365,-145.687 452.3368,48.842 0,0 -61.6938,-100.229 -154.196,-158.226 0,0 805.2933,191.22 653.3701,699.541 0,0 -131.1124,272.48 -728.8621,106.617"
           style="fill:#f57525;fill-opacity:1;fill-rule:nonzero;stroke:none;stroke-width:0.759031"
           id="path1280-3"
           sodipodi:nodetypes="cccccccccc" /><path
           d="m 893.5692,39436.882 c 0,0 -60.8999,-23.273 -69.2853,-114.612 0,0 7.6787,-37.038 -68.8047,-62.509 0,0 -63.1571,-15.191 -75.0754,-92.491 0,0 58.9843,54.933 155.1153,27.45 0,0 99.8954,-21.431 159.5409,59.156 0,0 1.1922,-35.751 -39.8461,-63.217 0,0 175.1738,25.812 183.8792,172.088 -5.3298,28.824 -13.7589,59.634 -25.8253,92.605 0,0 -45.8054,22.825 -117.0158,34.333 -50.9335,-2.822 -111.3821,-20.82 -169.3844,-74.257 0,0 42.6935,21.143 66.7016,21.454"
           style="fill:#f57525;fill-opacity:1;fill-rule:nonzero;stroke:none;stroke-width:0.472452"
           id="path1282-6-5" /><path
           d="m 679.0263,39888.779 c -38.8832,-4.401 -89.8245,-22.007 -150.9905,-68.985 0,0 39.3583,19.51 57.4397,20.545 0,0 -53.7357,-21.921 -92.0312,-100.61 0,0 -7.2201,-31.554 -73.3946,-55.855 0,0 -52.6019,-15.055 -88.6053,-81.795 0,0 63.3979,49.032 125.7255,28.502 0,0 67.2629,-15.212 140.1564,55.878 0,0 -11.6408,-30.66 -51.9761,-55.543 0,0 130.922,25.927 191.8593,141.275 5.4084,27.636 9.6368,56.406 12.3562,86.519 0,0 -24.3012,16.751 -70.5394,30.069"
           style="fill:#f57525;fill-opacity:1;fill-rule:nonzero;stroke:none;stroke-width:0.596303"
           id="path1284-7-3" /><path
           d="m 1218.5459,39921.06 c -1.2416,0.944 -124.1906,92.337 -268.8314,48.594 1.6863,-15.102 7.4108,-40.106 21.919,-46.335 l -8.3679,-10.72 c -31.4628,13.507 -33.2284,57.833 -33.4113,63.644 -0.1341,4.275 2.5565,8.124 6.6125,9.476 157.6018,52.343 305.4151,-55.726 310.9021,-59.9 l -28.824,-4.753 5.8446,7.685 -5.8436,-7.691"
           style="fill:#f03b33;fill-opacity:1;fill-rule:nonzero;stroke:none;stroke-width:0.0589297"
           id="path344"
           sodipodi:nodetypes="cccccccccc" /><path
           d="m 745.7781,39671.468 c 0,0 9.201,-11.376 26.8609,-16.68 0,0 29.2117,-58.007 99.0002,-91.174 69.7865,-33.16 161.7732,-127.094 254.6646,-148.934 l 0.07,0.08 c 2.3792,1.614 57.4184,39.157 152.4042,10.821 38.09,34.717 52.6562,63.906 58.1918,82.024 3.8855,12.688 3.3626,19.955 3.3626,19.955 -5.047,0.819 -10.3712,1.941 -15.9199,3.393 -86.4504,-63.66 -114.8122,20.945 -83.8181,42.698 31.2744,21.959 59.5807,46.182 59.5807,46.182 9.5521,-7.247 22.0396,-14.84 36.7663,-19.69 12.7667,-4.216 27.3026,-6.329 43.1191,-4.31 3.511,0.445 7.082,1.122 10.6925,1.973 18.7293,4.514 39.034,15.051 60.2543,34.719 1.3256,1.25 2.6267,2.433 3.8417,3.69 l 0.033,0.06 c 34.8938,34.39 44.7157,72.883 41.8747,107.007 -4.3972,53.239 -39.5598,95.777 -58.4466,95.348 -14.7557,-0.354 -32.9008,-1.992 -47.923,-3.648 -3.1349,-0.353 -6.1156,-0.697 -8.9419,-1.03 -12.0563,-1.42 -23.8232,4.487 -29.6964,15.051 -19.1357,34.253 -74.584,102.334 -182.4682,73.892 -26.4689,-6.991 -56.1526,-19.812 -89.1863,-40.342 0,0 192.9935,81.251 243.1982,-90.896 0,0 14.1301,-80.352 -74.7018,-106.951 -88.7704,-26.626 -97.4351,-100.115 -88.9567,-134.307 8.4727,-34.195 -100.814,-45.748 -303.3971,183.325 0,0 -32.0585,-6.385 -53.3263,-19.479 0,0 6.7362,-17.905 23.1317,-25.676 0,0 -49.551,4.431 -80.2638,-17.104"
           style="fill:#ffcc22;fill-opacity:1;fill-rule:nonzero;stroke:none;stroke-width:0.0589297"
           id="path30" /><path
           d="m 980.2427,39735.543 -0.1617,0.07 v 0 c -7.2518,1.271 -14.2391,2.834 -21.1106,4.52 0.3579,0.573 0.7169,1.141 1.0711,1.702 2.4566,3.818 0.4844,8.858 -3.9002,10.034 -10.7323,2.877 -27.2886,8.941 -31.4606,19.686 -1.5579,3.936 -0.9549,8.14 0.8367,12.228 1.8036,4.12 -0.9747,8.848 -5.4551,9.257 -34.9007,3.16 -51.2865,18.163 -57.7215,26.311 -2.1932,2.773 -1.9231,6.797 0.7426,9.12 3.8969,3.402 7.9357,6.613 12.0005,9.613 17.3032,12.788 11.6722,40.102 -9.3518,44.674 -44.6277,9.702 -83.9536,12.664 -110.8241,13.322 -3.9716,6.902 -6.1588,11.406 -6.6797,12.504 v 0 c -0.028,0.06 -0.055,0.104 -0.068,0.143 -0.01,0.01 -0.01,0.02 -0.017,0.03 v 0 c 0,0 -0.01,0.01 -0.01,0.02 v 0 0 c 0,0 -0.01,0.01 -0.01,0.02 0,0 0,0 0,0.01 h -0.01 c 0,0 0,0.01 0,0.01 0,0 0,0 0,0 0,0 -0.01,0 -0.01,0.01 v 0 c 0,0 0,0 0,0 v 0 0 0 0 c 0,0 3.2152,0.267 9.1353,0.476 3.1232,0.112 6.9916,0.209 11.5361,0.242 34.2979,0.259 107.041,-2.974 185.9479,-29.659 -0.9506,-0.375 -26.5861,-11.344 -50.8504,-29.605 -5.0457,-3.805 -10.0408,-7.925 -14.7339,-12.326 v 0 0 0 0 c 0,0 14.6462,-31.231 72.1407,-32.177 -0.01,0 -0.015,-0.01 -0.025,-0.03 -4.5938,-5.719 -8.0681,-12.301 -6.9673,-18.456 0.1471,-0.817 0.3706,-1.628 0.688,-2.426 6.3099,-16.242 40.9224,-21.794 40.9224,-21.794 0,0 -0.01,-0.01 -0.019,-0.03 -5.4941,-7.071 -11.3676,-16.36 -15.6351,-27.522"
           style="fill:#f03b33;fill-opacity:1;fill-rule:nonzero;stroke:none;stroke-width:0.0589297"
           id="path90" /><path
           d="m 1117.2813,39905.822 c -13.7212,3.25 -30.5449,6.439 -50.0096,8.633 -54.6526,7.582 -91.586,2.867 -105.2795,0.405 -1.6821,-0.303 -3.0166,-0.573 -3.9857,-0.777 0.8984,0.964 1.1641,1.251 2.484,2.668 -3.4968,6.891 -5.8166,14.563 -7.3493,21.521 4.6318,-2.55 10.0788,-3.606 15.5041,-3.044 60.1601,6.24 110.0405,0.06 143.9581,-7.291 3.383,-0.733 6.8432,-0.764 10.213,-0.158 1.5079,0.272 2.9988,0.672 4.4561,1.191 18.8403,6.706 36.3416,11.5 52.6147,14.702 12.1571,-5.507 22.5919,-11.025 31.0044,-15.853 -5.2989,-0.366 -10.7553,-0.923 -16.3797,-1.677 -3.9868,-0.537 -8.0508,-1.178 -12.2034,-1.925 -0.01,0 -0.01,0 -0.012,0 v 0 0 c -0.011,0 -0.017,0 -0.029,0 -19.6443,-3.533 -41.1454,-9.46 -64.6558,-18.262 -0.1071,-0.04 -0.2189,-0.08 -0.3307,-0.126"
           style="fill:#f03b33;fill-opacity:1;fill-rule:nonzero;stroke:none;stroke-width:0.0589297"
           id="path96" /><path
           d="m 1028.607,39902.883 c -8.0168,-0.436 -15.3843,-0.186 -22.6538,0.416 -7.2537,0.582 -14.3427,1.48 -21.3354,2.707 -13.9336,2.668 -27.9544,4.954 -42.0845,6.382 -28.2314,2.898 -56.6978,3.64 -84.9903,1.552 -14.1419,-0.969 -28.2793,-2.296 -42.2908,-4.523 -7.0294,-0.965 -13.9864,-2.366 -20.9972,-3.501 -6.958,-1.395 -13.9366,-2.71 -20.8477,-4.366 -27.704,-6.36 -54.9393,-14.827 -81.8235,-24.68 l 4.983,12.944 v 0 c 2.373,-4.938 5.4518,-10.438 8.5023,-15.547 3.0951,-5.192 6.3666,-10.297 9.7841,-15.317 6.8235,-10.041 14.2111,-19.723 22.076,-28.997 15.7239,-18.547 33.3754,-35.461 52.6804,-50.149 19.3086,-14.675 40.2596,-27.163 62.445,-36.861 22.1628,-9.737 45.5193,-16.691 69.3978,-20.887 l -3.3247,-19.033 c -25.3496,4.452 -50.2313,11.862 -73.8359,22.226 -23.6227,10.331 -45.9083,23.615 -66.3832,39.182 -20.4714,15.58 -39.1223,33.458 -55.7188,53.028 -8.2988,9.788 -16.0934,20.002 -23.3158,30.63 -3.6141,5.313 -7.0852,10.73 -10.3932,16.273 -3.3341,5.621 -6.4068,11.02 -9.4534,17.34 v 0.01 c -2.3231,4.594 -0.4756,10.201 4.1191,12.518 l 0.104,0.06 0.755,0.363 c 26.7087,12.893 54.8756,22.904 83.7233,30.362 14.4633,3.577 29.0407,6.852 43.8204,8.935 14.7411,2.298 29.6103,3.817 44.5174,4.659 29.8152,1.513 59.7876,0.287 89.3075,-4.115 14.7436,-2.276 29.4132,-5.141 43.8177,-9.094 7.1616,-2.167 14.1718,-4.924 20.8494,-8.561 6.6512,-3.624 13.115,-7.97 18.5669,-13.947"
           style="fill:#f03b33;fill-opacity:1;fill-rule:nonzero;stroke:none;stroke-width:0.0589297"
           id="path340" /><path
           d="m 1306.1106,39504.591 c -16.5428,-8.626 -30.3041,-10.2 -41.1554,-8.661 -18.5557,2.626 -33.515,15.854 -39.0594,34.515 -5.0868,17.16 -0.8745,34.788 10.7378,44.918 28.107,24.533 53.4531,51.314 53.7069,51.579 l 17.7344,-13.661 c -1.0565,-1.122 -29.9309,-27.338 -58.7395,-52.475 -5.9345,-5.175 -7.8587,-14.932 -4.9139,-24.861 3.4112,-11.5 12.1026,-19.309 23.2446,-20.883 14.0906,-2.003 38.5336,-14.713 99.0844,79.82 l 29.6667,5.031 c -36.4572,-56.913 -65.7194,-82.494 -90.3066,-95.322"
           style="fill:#f03b33;fill-opacity:1;fill-rule:nonzero;stroke:none;stroke-width:0.0589297"
           id="path346"
           sodipodi:nodetypes="cccccccccccc" /><path
           d="m 1339.2815,39592.933 c -1.1286,-1.634 0,0 -3.0556,-3.937 -1.0083,-1.202 -2.0351,-2.316 -3.0668,-3.452 -2.1202,-2.184 -4.2945,-4.288 -6.5784,-6.243 -4.5564,-3.925 -9.3636,-7.483 -14.4468,-10.57 -5.091,-3.065 -10.2796,-5.877 -15.7398,-8.074 -5.3673,-2.331 -11.0093,-4.004 -16.6359,-5.321 4.395,3.817 8.6888,7.498 12.7148,11.382 4.0685,3.818 7.8776,7.819 11.5194,11.866 3.6575,4.021 7.0308,8.241 10.276,12.433 1.6224,2.106 3.1679,4.234 4.6781,6.355 0.743,1.05 1.5255,2.096 2.2053,3.148 l 1.8067,3.78 20.0995,-6.1"
           style="fill:#f03b33;fill-opacity:1;fill-rule:nonzero;stroke:none;stroke-width:0.0589297"
           id="path348"
           sodipodi:nodetypes="cccccccccccccc" /><path
           d="m 1180.9888,39798.045 c 11.3386,-22.321 33.522,-33.825 49.5466,-25.686 16.0304,8.139 19.8356,32.835 8.5022,55.163 -11.3384,22.322 -33.5219,33.826 -49.5523,25.686 -16.0245,-8.138 -19.8298,-32.834 -8.4965,-55.163"
           style="fill:#f03b33;fill-opacity:1;fill-rule:nonzero;stroke:none;stroke-width:0.0589297"
           id="path368" /><path
           d="m 1497.5819,39723.472 c 9.9123,52.492 -12.6783,102.846 -30.9998,107.453 -14.319,3.581 -32.2468,6.825 -47.1686,9.222 -0.1295,-29.449 9.002,-87.936 78.1684,-116.675"
           style="fill:#f03b33;fill-opacity:1;fill-rule:nonzero;stroke:none;stroke-width:0.0589297"
           id="path372" /><path
           d="m 714.7695,39598.434 c 0,0 -60.8999,-23.274 -69.2853,-114.613 0,0 7.6788,-37.037 -68.8047,-62.509 0,0 -63.157,-15.191 -75.0754,-92.49 0,0 58.9843,54.933 155.1154,27.449 0,0 99.8953,-21.431 159.5408,59.157 0,0 1.1923,-35.752 -39.8461,-63.218 0,0 175.1738,25.813 183.8793,172.089 -5.3299,28.823 -13.759,59.633 -25.8252,92.605 0,0 -45.8055,22.825 -117.0159,34.333 -71.6743,20.231 -111.3821,-20.821 -169.3844,-74.257 0,0 42.6934,21.142 66.7015,21.454"
           style="fill:#f03b33;fill-opacity:1;fill-rule:nonzero;stroke:none;stroke-width:0.472452"
           id="path1282-6"
           sodipodi:nodetypes="cccccccccccc" /><path
           d="m 1124.1571,39503.787 c -35.4177,16.639 -88.0276,28.354 -164.7426,20.418 0,0 43.7442,-4.021 59.6838,-12.619 0,0 -57.2514,9.505 -131.1167,-37.424 0,0 -22.6911,-23.084 -91.7829,-9.084 0,0 -52.6855,14.759 -118.335,-23.198 0,0 79.6934,8.516 122.0043,-41.644 0,0 49.3017,-48.219 148.6454,-25.899 0,0 -25.987,-20.005 -73.3804,-20.047 0,0 125.0789,-46.563 237.4448,19.713 19.0945,20.698 37.779,42.98 55.8821,67.197 0,0 -11.9109,27.005 -44.3028,62.587"
           style="fill:#ffcc22;fill-opacity:1;fill-rule:nonzero;stroke:none;stroke-width:0.596303"
           id="path1284-7" /><ellipse
           style="opacity:1;fill:#ffffff;fill-opacity:1;stroke-width:0.0465319"
           id="path1558"
           cx="-34847.805"
           cy="-19321.41"
           transform="matrix(0.45793931,-0.88898346,-0.88898346,-0.45793931,0,0)"
           rx="17.257858"
           ry="12.794339" /><ellipse
           style="opacity:1;fill:#ffffff;fill-opacity:1;stroke-width:0.0313847"
           id="path1558-5"
           cx="-9748.6328"
           cy="-35955.328"
           transform="matrix(0.84615545,-0.53293616,-0.27019474,-0.96280569,0,0)"
           rx="12.873838"
           ry="7.802464" /><path
           d="m 222.7379,39449.981 c 0,0 -60.9,-23.274 -69.2853,-114.613 0,0 7.6787,-37.037 -68.8048,-62.509 0,0 -63.157,-15.191 -75.0753,-92.49 0,0 58.9842,54.933 155.1153,27.449 0,0 99.8954,-21.431 159.5408,59.157 0,0 1.1923,-35.752 -39.846,-63.218 0,0 175.1738,25.813 183.8792,172.089 -5.3299,28.823 -13.7589,59.633 -25.8252,92.605 0,0 -45.8054,22.825 -117.0159,34.333 -50.9335,-2.822 -111.3821,-20.821 -169.3844,-74.258 0,0 42.6935,21.143 66.7016,21.455"
           style="fill:#f57525;fill-opacity:1;fill-rule:nonzero;stroke:none;stroke-width:0.472452"
           id="path1282-6-5-6" /></g></g></g></svg>
